# Blender v2.79 (sub 0) OBJ File: 'Rock.blend'
# www.blender.org
mtllib Rock3.mtl
o Cube.002
v -2.476494 -0.023347 2.186736
v -3.883890 1.256425 3.311891
v -0.524337 -0.023346 -1.094630
v -2.778451 1.256425 -2.639342
v 1.557510 -0.023347 1.410577
v 2.819983 1.256425 2.535732
v 1.745670 -0.023347 -2.035429
v 3.556708 1.052545 -3.423107
v -1.500416 -0.023346 0.546053
v -1.402532 1.256425 0.124595
v 1.651590 -0.023347 -0.312426
v 4.176185 1.154485 -0.161448
v 0.610667 -0.023346 -1.565030
v 0.530248 1.154485 -5.148022
v -0.459492 -0.023347 1.798656
v -0.061554 1.256425 4.617250
v -2.039600 1.697508 1.833461
v 0.075587 -0.023347 0.116813
v -1.413475 1.697508 -1.537343
v 1.757501 1.697508 1.393841
v 2.174786 1.582029 -1.981271
v -0.634149 1.697508 0.028163
v 2.525660 1.639768 -0.133853
v 0.460586 1.639768 -2.958270
v 0.125387 1.697508 2.572821
v -4.437205 2.138677 1.464229
v -1.526943 2.138677 -3.334190
v 1.630948 2.138677 2.989580
v 4.223956 1.949652 -1.936350
v -1.240135 2.138677 -0.486080
v 3.691552 2.044164 1.095323
v 2.165059 2.044164 -4.424685
v -1.550535 2.138677 3.849722
v -3.967102 2.568987 1.311462
v -1.341463 2.568987 -3.017672
v 1.507587 2.568987 2.687634
v 3.846999 2.398449 -1.756540
v -1.082704 2.568987 -0.448107
v 3.366665 2.483718 0.978635
v 1.989462 2.483718 -4.001518
v -1.362747 2.568987 3.463654
v -5.870039 3.395015 -3.801712
v 2.062840 3.395015 -5.210045
v -1.764868 3.395015 4.188213
v 6.004897 3.123639 2.316891
v -0.737053 3.395015 -2.201819
v 2.230737 3.259327 4.615546
v 6.737524 3.259327 -2.261601
v -5.707341 3.395015 1.572075
v -4.116494 3.880003 -2.760789
v 1.586979 3.880003 -3.773333
v -1.165014 3.880003 2.983696
v 4.421185 3.684893 1.638280
v -0.426050 3.880003 -1.610521
v 1.707691 3.782448 3.290935
v 4.947919 3.782448 -1.653502
v -3.999519 3.880003 1.102782
v -1.849356 4.469532 -1.414994
v 0.971744 4.469532 -1.915826
v -0.389470 4.469532 1.426393
v 2.373622 4.373025 0.760911
v -0.023958 4.469532 -0.846038
v 1.031451 4.421279 1.578361
v 2.634160 4.421279 -0.867298
v -1.791497 4.469532 0.496038
vt 0.282851 0.595843
vt 0.328002 0.608708
vt 0.339525 0.721736
vt 0.278757 0.653429
vt 0.132031 0.633142
vt 0.087834 0.499941
vt 0.210706 0.525472
vt 0.165137 0.601825
vt 0.181955 0.665887
vt 0.269659 0.636503
vt 0.254915 0.751557
vt 0.198772 0.729948
vt 0.134736 0.769255
vt 0.181171 0.863450
vt 0.036113 0.863450
vt 0.070700 0.808561
vt 0.133383 0.701198
vt 0.630824 0.632724
vt 0.552521 0.716451
vt 0.528527 0.702058
vt 0.572878 0.654635
vt 0.366026 0.636776
vt 0.424079 0.525755
vt 0.455777 0.594047
vt 0.422895 0.656930
vt 0.286945 0.538257
vt 0.339525 0.499941
vt 0.098924 0.664459
vt 0.084812 0.736510
vt 0.343458 0.754817
vt 0.343458 0.896980
vt 0.319855 0.812056
vt 0.319855 0.731535
vt 0.600429 0.863707
vt 0.455666 0.863707
vt 0.473668 0.785464
vt 0.555662 0.785464
vt 0.004549 0.632453
vt 0.546827 0.500223
vt 0.525302 0.579585
vt 0.381537 0.751821
vt 0.431681 0.722092
vt 0.820912 0.759408
vt 0.839235 0.684236
vt 0.871786 0.733579
vt 0.803246 0.837346
vt 0.773856 0.573929
vt 0.703999 0.586842
vt 0.717431 0.500223
vt 0.831369 0.523886
vt 0.825701 0.620086
vt 0.885735 0.626867
vt 0.310757 0.801675
vt 0.310757 0.866079
vt 0.293215 0.841932
vt 0.299464 0.731535
vt 0.684446 0.674995
vt 0.639922 0.623124
vt 0.741779 0.702399
vt 0.744034 0.790626
vt 0.668792 0.837346
vt 0.712881 0.700775
vt 0.655522 0.851133
vt 0.655522 0.995101
vt 0.639922 0.977032
vt 0.639922 0.847144
vt 0.278757 0.843449
vt 0.284394 0.743849
vt 0.726944 0.210113
vt 0.728230 0.102061
vt 0.740539 0.107895
vt 0.739379 0.205379
vt 0.779612 0.324263
vt 0.786896 0.308366
vt 0.796230 0.009132
vt 0.801888 0.024055
vt 0.911958 0.346759
vt 0.906298 0.328662
vt 0.911958 0.004899
vt 0.906298 0.020236
vt 0.894833 0.961846
vt 0.894833 0.814195
vt 0.914508 0.816578
vt 0.914508 0.949789
vt 0.050000 0.187246
vt 0.081161 0.317017
vt 0.004549 0.181939
vt 0.115883 0.004899
vt 0.173475 0.310024
vt 0.233142 0.423547
vt 0.045789 0.490143
vt 0.109027 0.293657
vt 0.995134 0.656109
vt 0.951524 0.682550
vt 0.953581 0.642492
vt 0.995451 0.500223
vt 0.288764 0.213595
vt 0.229932 0.139852
vt 0.356928 0.187104
vt 0.336659 0.340852
vt 0.313228 0.325423
vt 0.238409 0.490143
vt 0.132755 0.118189
vt 0.279324 0.038725
vt 0.366026 0.187085
vt 0.444071 0.038389
vt 0.471746 0.099513
vt 0.415634 0.206420
vt 0.675204 0.490424
vt 0.482968 0.490424
vt 0.499712 0.424510
vt 0.637923 0.424510
vt 0.607467 0.004899
vt 0.589222 0.075435
vt 0.717846 0.182253
vt 0.668581 0.202946
vt 0.995451 0.804396
vt 0.957544 0.754035
vt 0.927441 0.637631
vt 0.957544 0.535345
vt 0.385632 0.341149
vt 0.429730 0.317187
vt 0.479646 0.231370
vt 0.486619 0.286158
vt 0.521234 0.339243
vt 0.507401 0.178490
vt 0.589597 0.339243
vt 0.565508 0.166580
vt 0.604761 0.229651
vt 0.909723 0.689073
vt 0.894833 0.631496
vt 0.909723 0.580902
vt 0.567489 0.269376
vn -0.7893 -0.6099 0.0716
vn 0.0933 -0.9186 -0.3840
vn 0.4917 -0.8517 0.1810
vn -0.0829 -0.8455 0.5275
vn 0.0000 -1.0000 0.0000
vn -0.4626 0.8562 0.2303
vn 0.2798 0.9565 -0.0830
vn 0.4543 -0.8903 -0.0297
vn -0.7876 -0.2479 -0.5641
vn -0.4953 0.7785 -0.3856
vn -0.0698 0.9764 0.2043
vn 0.2315 -0.8577 0.4592
vn -0.2409 -0.9134 -0.3281
vn 0.1518 0.9660 -0.2093
vn 0.1605 0.9617 0.2222
vn -0.1359 0.9663 -0.2185
vn 0.2821 0.9535 0.1058
vn 0.1613 -0.9104 0.3809
vn 0.1304 -0.9741 -0.1848
vn 0.2188 -0.9750 0.0386
vn 0.2039 -0.9560 0.2111
vn -0.9571 -0.1749 0.2312
vn -0.1720 -0.9300 -0.3248
vn -0.2043 -0.9463 -0.2504
vn -0.1524 -0.9571 0.2464
vn -0.5033 0.2569 -0.8250
vn -0.9376 0.3347 0.0944
vn 0.5675 0.5757 0.5886
vn 0.2086 0.6011 0.7715
vn 0.7832 0.6104 0.1185
vn -0.4573 0.6961 0.5534
vn 0.5827 0.6723 -0.4566
vn -0.2037 0.6356 -0.7447
vn 0.1235 -0.7959 -0.5927
vn -0.0046 -0.9725 -0.2329
vn -0.6197 0.7323 -0.2823
vn 0.0355 -0.9450 0.3251
vn -0.1868 -0.6976 0.6917
vn 0.1502 -0.9740 0.1697
vn -0.4057 -0.9018 0.1492
vn 0.2724 -0.9592 -0.0760
vn 0.2084 0.9350 0.2870
vn -0.2711 0.9625 0.0082
vn 0.3037 0.9497 0.0767
vn 0.1896 0.9476 -0.2571
vn 0.2133 0.6974 -0.6842
vn -0.4463 0.7926 -0.4154
vn -0.0080 0.9290 0.3700
vn -0.1888 0.9399 0.2845
vn -0.0058 0.9362 0.3515
vn -0.1787 0.9463 0.2693
vn 0.1997 0.9413 0.2723
vn -0.2560 0.9667 0.0077
vn 0.2888 0.9545 0.0745
vn 0.1807 0.9531 -0.2426
vn 0.2068 0.7192 -0.6633
vn -0.4290 0.8103 -0.3992
vn 0.0185 0.9998 0.0102
usemtl Material.001
s off
f 9/1/1 10/2/1 4/3/1 3/4/1
f 13/5/2 14/6/2 8/7/2 7/8/2
f 11/9/3 12/10/3 6/11/3 5/12/3
f 15/13/4 16/14/4 2/15/4 1/16/4
f 18/17/5 11/9/5 5/12/5 15/13/5
f 4/18/6 10/19/6 22/20/6 19/21/6
f 12/22/7 8/23/7 21/24/7 23/25/7
f 13/5/5 7/8/5 11/9/5 18/17/5
f 7/8/8 8/7/8 12/10/8 11/9/8
f 1/26/9 2/27/9 10/2/9 9/1/9
f 3/28/5 13/5/5 18/17/5 9/29/5
f 10/30/10 2/31/10 17/32/10 22/33/10
f 2/34/11 16/35/11 25/36/11 17/37/11
f 9/29/5 18/17/5 15/13/5 1/16/5
f 5/12/12 6/11/12 16/14/12 15/13/12
f 3/28/13 4/38/13 14/6/13 13/5/13
f 8/23/14 14/39/14 24/40/14 21/24/14
f 16/35/15 6/41/15 20/42/15 25/36/15
f 14/39/16 4/18/16 19/21/16 24/40/16
f 6/41/17 12/22/17 23/25/17 20/42/17
f 25/43/18 20/44/18 28/45/18 33/46/18
f 21/47/19 24/48/19 32/49/19 29/50/19
f 23/51/20 21/47/20 29/50/20 31/52/20
f 20/44/21 23/51/21 31/52/21 28/45/21
f 19/53/22 22/54/22 30/55/22 27/56/22
f 24/48/23 19/57/23 27/58/23 32/49/23
f 22/59/24 17/60/24 26/61/24 30/62/24
f 17/60/25 25/43/25 33/46/25 26/61/25
f 30/63/26 26/64/26 34/65/26 38/66/26
f 27/56/27 30/55/27 38/67/27 35/68/27
f 28/69/28 31/70/28 39/71/28 36/72/28
f 33/73/29 28/69/29 36/72/29 41/74/29
f 31/70/30 29/75/30 37/76/30 39/71/30
f 26/77/31 33/73/31 41/74/31 34/78/31
f 29/75/32 32/79/32 40/80/32 37/76/32
f 32/81/33 27/82/33 35/83/33 40/84/33
f 40/85/34 35/86/34 43/87/34 48/88/34
f 38/89/35 34/90/35 42/91/35 46/92/35
f 35/93/36 38/94/36 46/95/36 43/96/36
f 36/97/37 39/98/37 47/99/37 44/100/37
f 41/101/38 36/97/38 44/100/38 49/102/38
f 39/98/39 37/103/39 45/104/39 47/99/39
f 34/90/40 41/101/40 49/102/40 42/91/40
f 37/103/41 40/85/41 48/88/41 45/104/41
f 47/105/42 45/106/42 53/107/42 55/108/42
f 42/109/43 49/110/43 57/111/43 50/112/43
f 45/106/44 48/113/44 56/114/44 53/107/44
f 48/113/45 43/115/45 51/116/45 56/114/45
f 46/95/46 42/117/46 50/118/46 54/119/46
f 43/96/47 46/95/47 54/119/47 51/120/47
f 44/121/48 47/105/48 55/108/48 52/122/48
f 49/110/49 44/121/49 52/122/49 57/111/49
f 52/122/50 55/108/50 63/123/50 60/124/50
f 57/111/51 52/122/51 60/124/51 65/125/51
f 55/108/52 53/107/52 61/126/52 63/123/52
f 50/112/53 57/111/53 65/125/53 58/127/53
f 53/107/54 56/114/54 64/128/54 61/126/54
f 56/114/55 51/116/55 59/129/55 64/128/55
f 54/119/56 50/118/56 58/130/56 62/131/56
f 51/120/57 54/119/57 62/131/57 59/132/57
f 63/123/58 61/126/58 64/128/58 59/129/58 62/133/58 58/127/58 65/125/58 60/124/58
